name grf.mot
datacolumns 19
datarows 40
range 2.02875 2.0775
DataType=double
version=3
OpenSimVersion=4.4
endheader
time	R_ground_force_vx	R_ground_force_vy	R_ground_force_vz	R_ground_force_px	R_ground_force_py	R_ground_force_pz	L_ground_force_vx	L_ground_force_vy	L_ground_force_vz	L_ground_force_px	L_ground_force_py	L_ground_force_pz	R_ground_torque_x	R_ground_torque_y	R_ground_torque_z	L_ground_torque_x	L_ground_torque_y	L_ground_torque_z
2.02875	94.6908156161334	812.5936269458506	-45.279513164758775	0.44502742363420034	-0.00014122307315076954	0.25888443422299856	0.0	0.0	0.0	0.0	0.0	0.0	0.031481876739505	4.790691861601182	-0.013357481272225314	0.0	0.0	0.0
2.0300000000000002	96.47022579271687	816.3965484531687	-43.83345665130324	0.4450450355772223	-0.00014277555080034998	0.25836914358687296	0.0	0.0	0.0	0.0	0.0	0.0	0.03426402377014154	5.214059542242764	-0.014537921598759966	0.0	0.0	0.0
2.03125	97.29882805872256	809.5302328811142	-44.52602766293647	0.4457658331652374	-0.0001456695687779057	0.2590300251009632	0.0	0.0	0.0	0.0	0.0	0.0	0.03120235194511967	4.748155733000655	-0.01323888137943559	0.0	0.0	0.0
2.0324999999999998	98.89877102900434	805.7922379560633	-45.06217949956242	0.44677800335950185	-0.00015391292477827246	0.25845908204271895	0.0	0.0	0.0	0.0	0.0	0.0	0.030229766594144215	4.600154495203296	-0.01282622203517886	0.0	0.0	0.0
2.03375	99.14281586138009	804.9433559605467	-45.26912292672816	0.446238937172054	-0.00015072589701297179	0.2583316068656968	0.0	0.0	0.0	0.0	0.0	0.0	0.03062762888877903	4.660698397103312	-0.012995031480482365	0.0	0.0	0.0
2.035	100.9772574430696	804.6794060240012	-44.4797770535954	0.4461778544085017	-0.00015072224384732737	0.25818895281263815	0.0	0.0	0.0	0.0	0.0	0.0	0.030715280609757662	4.674036623087176	-0.013032221328823942	0.0	0.0	0.0
2.03625	100.76999513927736	798.4993796183228	-44.42040001110194	0.44676141444168604	-0.00015389422802361907	0.25842668971764315	0.0	0.0	0.0	0.0	0.0	0.0	0.03052019262676944	4.644349498011017	-0.01294944722673455	0.0	0.0	0.0
2.0375	103.51149619537217	797.2096130456847	-45.007858356883474	0.4471666992750294	-0.0001572973977753599	0.25816133950727266	0.0	0.0	0.0	0.0	0.0	0.0	0.029043906773619923	4.419698639976067	-0.012323072223774486	0.0	0.0	0.0
2.03875	104.1556087637061	793.6494371997248	-44.79085471496663	0.4473799611753974	-0.0001587153993572561	0.25815540097920053	0.0	0.0	0.0	0.0	0.0	0.0	0.02862213946417275	4.355517040080452	-0.012144120092559642	0.0	0.0	0.0
2.04	106.75554919104404	796.591415734584	-46.47495478913538	0.44713628975207903	-0.00015984569085820011	0.2571757168799333	0.0	0.0	0.0	0.0	0.0	0.0	0.024118192145258576	3.670137831453836	-0.010233135164269389	0.0	0.0	0.0
2.04125	106.90029828463537	786.1804653968885	-44.48463202241544	0.44754762358079536	-0.00015980276607096444	0.25816057323534963	0.0	0.0	0.0	0.0	0.0	0.0	0.027154877918620507	4.132239438072153	-0.011521574023329378	0.0	0.0	0.0
2.0425	107.71545018188968	783.5486656950766	-45.02194663455191	0.4480494694449484	-0.00016320429129834768	0.25812339484997604	0.0	0.0	0.0	0.0	0.0	0.0	0.026887958953910114	4.091621576483855	-0.01140832267234347	0.0	0.0	0.0
2.04375	108.61280672908566	780.4946568674454	-44.890439385993545	0.44814448399246404	-0.00016440231932868333	0.257917656447238	0.0	0.0	0.0	0.0	0.0	0.0	0.026302673070864476	4.002556863480316	-0.011159991059639147	0.0	0.0	0.0
2.045	110.05275309495397	777.1857227163023	-43.7995082292528	0.4480885807285218	-0.00016433704338649925	0.25780931096575904	0.0	0.0	0.0	0.0	0.0	0.0	0.026694183882339687	4.062134241086574	-0.011326105626932129	0.0	0.0	0.0
2.04625	111.07102534583208	773.6219828103648	-44.000807415926886	0.44759420337880523	-0.00016118605992465574	0.2577742342959634	0.0	0.0	0.0	0.0	0.0	0.0	0.026794538569637535	4.077405515657954	-0.011368685231294752	0.0	0.0	0.0
2.0475	112.77917905855894	774.0298485336647	-45.55049626277052	0.44668943632320146	-0.0001563175971195311	0.25738789950137947	0.0	0.0	0.0	0.0	0.0	0.0	0.02396627356705077	3.6470199245301713	-0.010168677458011761	0.0	0.0	0.0
2.04875	113.68514314280978	765.7273802738381	-44.8200901238157	0.44786358087963374	-0.0001654866027176186	0.25686672292954726	0.0	0.0	0.0	0.0	0.0	0.0	0.02450457194850791	3.728934408107441	-0.010397072690248987	0.0	0.0	0.0
2.05	116.17256774409462	764.602780535583	-47.49442379950241	0.448502321005311	-0.00017009554682445737	0.2567191432266163	0.0	0.0	0.0	0.0	0.0	0.0	0.021200307621286555	3.2261145682363774	-0.008995102622373186	0.0	0.0	0.0
2.05125	116.47581308465382	753.0888962226647	-45.91883571994989	0.4489390329252885	-0.0001700804938198266	0.2577538162207622	0.0	0.0	0.0	0.0	0.0	0.0	0.018526095069641535	2.8191716018635615	-0.007860457938636016	0.0	0.0	0.0
2.0525	117.25875391635086	751.0563712620809	-44.16199480174965	0.4495449542832432	-0.00017538769058752347	0.2572784569274528	0.0	0.0	0.0	0.0	0.0	0.0	0.022687898926453762	3.4524858109047165	-0.009626274428422529	0.0	0.0	0.0
2.05375	118.0323817044069	741.7379439327797	-43.678894701416596	0.449897902783959	-0.00017720431862076435	0.257458773561363	0.0	0.0	0.0	0.0	0.0	0.0	0.022201986963942794	3.378543126244661	-0.00942010628943589	0.0	0.0	0.0
2.055	119.23728209619297	740.9690831775027	-43.26228892278101	0.4491622928574763	-0.00017322262685611156	0.25715307800257153	0.0	0.0	0.0	0.0	0.0	0.0	0.022782262476207866	3.4668453960584027	-0.009666312046225645	0.0	0.0	0.0
2.05625	119.4268512187498	731.5699570272045	-42.73580085313655	0.4505301172416949	-0.00018211116104469016	0.2571889717655273	0.0	0.0	0.0	0.0	0.0	0.0	0.021485037059741002	3.2694427031772757	-0.009115910799511939	0.0	0.0	0.0
2.0575	121.19434714546111	727.9999473531202	-43.3980515934728	0.4504441213512438	-0.00018160063858014308	0.257169390513502	0.0	0.0	0.0	0.0	0.0	0.0	0.01932053024829441	2.940063192172286	-0.008197529743746563	0.0	0.0	0.0
2.05875	121.98658227767129	721.5601889342884	-43.04819919306513	0.44977746784571854	-0.00017799221287156575	0.25689234368571984	0.0	0.0	0.0	0.0	0.0	0.0	0.01980394329229537	3.013625608887461	-0.008402637613757676	0.0	0.0	0.0
2.06	124.20326856314968	717.2201215210974	-45.504257195956626	0.45028436609363415	-0.00018289570244081022	0.25632839010353214	0.0	0.0	0.0	0.0	0.0	0.0	0.019774194411625753	3.009098632249603	-0.008390015427358115	0.0	0.0	0.0
2.0612500000000002	124.44606998618204	708.5062330819918	-42.057956714398024	0.4509476410961046	-0.0001853492846964192	0.25701166153341104	0.0	0.0	0.0	0.0	0.0	0.0	0.018235427762125687	2.7749398835301267	-0.007737130376282687	0.0	0.0	0.0
2.0625	125.90502659335687	702.4819447728266	-42.96309399304301	0.45111547912240196	-0.0001877404385005952	0.25654964141991565	0.0	0.0	0.0	0.0	0.0	0.0	0.016834707951342766	2.5617881374183473	-0.007142817375346197	0.0	0.0	0.0
2.0637499999999998	125.99411821116502	696.6413967899445	-41.94534231993745	0.4511430223573355	-0.00018787990945589507	0.2565645357216665	0.0	0.0	0.0	0.0	0.0	0.0	0.017541856454793076	2.669397051856786	-0.007442854217802503	0.0	0.0	0.0
2.065	127.33298192362811	690.9597308495213	-41.7241423898083	0.45088716932465794	-0.00018693911688860953	0.2562989402646837	0.0	0.0	0.0	0.0	0.0	0.0	0.017040227156550194	2.593062612950312	-0.007230017352569793	0.0	0.0	0.0
2.06625	128.32895032344902	683.7567608174099	-41.24744731618049	0.450699773180966	-0.0001856423118128292	0.25632237366646643	0.0	0.0	0.0	0.0	0.0	0.0	0.01631794257051356	2.4831503953046714	-0.006923558404425359	0.0	0.0	0.0
2.0675	130.81114207834523	680.7773387240578	-41.036521688739654	0.4497091879346467	-0.00018018030964228905	0.25594665064085564	0.0	0.0	0.0	0.0	0.0	0.0	0.014641467493831248	2.2280361410784977	-0.006212244888225863	0.0	0.0	0.0
2.06875	130.51847967231066	667.9926103715071	-41.0838455147387	0.4514023533642441	-0.00019092179225441874	0.2560847673999299	0.0	0.0	0.0	0.0	0.0	0.0	0.014422418094108188	2.1947027351565738	-0.006119304169389322	0.0	0.0	0.0
2.07	131.20974135531662	665.2788247761121	-40.91104358281564	0.4502107619236077	-0.00018614801069920196	0.25498846652449647	0.0	0.0	0.0	0.0	0.0	0.0	0.014860567028596517	2.2613771762005697	-0.006305206878916459	0.0	0.0	0.0
2.07125	131.34011929848347	659.1013489458447	-39.1411217874534	0.4492880119271914	-0.00018059456398903428	0.254805419313687	0.0	0.0	0.0	0.0	0.0	0.0	0.012728734164188306	1.9369697579795762	-0.005400689089285635	0.0	0.0	0.0
2.0725	132.79184805755654	645.5414788403185	-39.77491446633289	0.4520683880116451	-0.00019643242403821605	0.2556781250057163	0.0	0.0	0.0	0.0	0.0	0.0	0.012180502777493893	1.8535437391229714	-0.005168079370963871	0.0	0.0	0.0
2.07375	132.40535430112254	637.0791844958658	-38.665253403471255	0.45242116643978797	-0.000198733572924632	0.25568426626446045	0.0	0.0	0.0	0.0	0.0	0.0	0.012211190906844855	1.8582136440573533	-0.005181100072254233	0.0	0.0	0.0
2.075	133.87060155950653	631.0620704168529	-36.982510017706204	0.45171195829262994	-0.00019438140815343453	0.2555736673355419	0.0	0.0	0.0	0.0	0.0	0.0	0.011447388238980496	1.7419834950390967	-0.004857025369970956	0.0	0.0	0.0
2.07625	133.09102727560975	619.892663657557	-35.906133196564404	0.4527197307704995	-0.000200598371459332	0.2557191298951908	0.0	0.0	0.0	0.0	0.0	0.0	0.01183786579857022	1.8014036395985533	-0.005022701537646785	0.0	0.0	0.0
2.0775	134.5210002805651	615.4798032152966	-35.939112563670044	0.45243164438433425	-0.00020035476951672782	0.2551275154961416	0.0	0.0	0.0	0.0	0.0	0.0	0.009876451342944221	1.5029293031558608	-0.004190490768419682	0.0	0.0	0.0
